<svg id="visual" viewBox="0 0 900 600" width="900" height="600" xmlns="http://www.w3.org/2000/svg" xmlns:xlink="http://www.w3.org/1999/xlink" version="1.1"><rect width="900" height="600" fill="#931F1F"></rect><g><g transform="translate(576 81)"><path d="M119.7 -55.3C141.9 -30.7 137.6 23.1 113.2 64.3C88.8 105.4 44.4 133.9 1.6 133C-41.3 132.1 -82.6 101.8 -102.2 63.5C-121.7 25.1 -119.6 -21.4 -98.9 -45.1C-78.3 -68.9 -39.1 -70 4.8 -72.8C48.8 -75.6 97.5 -80 119.7 -55.3Z" fill="#F7760E"></path></g><g transform="translate(51 53)"><path d="M36.5 -22.7C42.9 -10 40.7 6.1 33.2 24.9C25.7 43.7 12.8 65.3 -8.3 70.1C-29.5 74.9 -59 63 -72.7 40.7C-86.3 18.3 -84 -14.4 -69.3 -32C-54.5 -49.6 -27.3 -52 -6.1 -48.4C15 -44.9 30.1 -35.5 36.5 -22.7Z" fill="#F7760E"></path></g><g transform="translate(301 400)"><path d="M59.4 -34C77 -3.9 91.2 28.5 80.7 58C70.3 87.4 35.1 114 1.3 113.3C-32.6 112.5 -65.1 84.5 -76.6 54.4C-88.1 24.4 -78.4 -7.7 -62.1 -37.1C-45.8 -66.5 -22.9 -93.3 -1 -92.7C20.9 -92.2 41.9 -64.2 59.4 -34Z" fill="#F7760E"></path></g><g transform="translate(697 500)"><path d="M48.2 -22.4C60.8 -5.9 68.4 19 59.6 31.9C50.7 44.7 25.3 45.6 2.8 44C-19.8 42.4 -39.6 38.3 -45.3 27.3C-51 16.3 -42.5 -1.7 -32.6 -16.6C-22.7 -31.5 -11.4 -43.4 3.2 -45.2C17.7 -47 35.5 -38.9 48.2 -22.4Z" fill="#F7760E"></path></g></g></svg>